<svg width="150" height="150" viewBox="0 0 150 150" fill="none" xmlns="http://www.w3.org/2000/svg">
<rect width="150" height="150" fill="white"/>
<path d="M69.603 103.397C69.603 102.878 69.7786 102.443 70.1297 102.092C70.496 101.726 70.9464 101.542 71.4806 101.542C72.0302 101.542 72.4805 101.726 72.8316 102.092C73.1827 102.443 73.3583 102.878 73.3583 103.397C73.3583 103.886 73.1827 104.313 72.8316 104.679C72.4805 105.046 72.0302 105.229 71.4806 105.229C70.9464 105.229 70.496 105.046 70.1297 104.679C69.7786 104.313 69.603 103.886 69.603 103.397Z" fill="#101929"/>
<path d="M53.9204 104.748L61.2019 97.1459C61.6141 96.7032 61.9652 96.2911 62.2552 95.9095C62.5452 95.5278 62.7666 95.1462 62.9192 94.7646C63.0719 94.3829 63.1482 93.986 63.1482 93.5739C63.1482 93.2838 63.0948 93.0014 62.9879 92.7267C62.8811 92.4519 62.7208 92.2076 62.5071 91.9939C62.2934 91.7802 62.0339 91.6123 61.7286 91.4902C61.4233 91.3528 61.0721 91.2841 60.6753 91.2841C60.1104 91.2841 59.622 91.4215 59.2098 91.6963C58.8129 91.9558 58.5 92.3298 58.271 92.8182C58.0573 93.3067 57.9504 93.8715 57.9504 94.5127H54.7447C54.7447 93.3678 54.9737 92.3374 55.4317 91.4215C55.8896 90.5056 56.5613 89.7805 57.4467 89.2462C58.3473 88.6966 59.4464 88.4219 60.7439 88.4219C61.7057 88.4219 62.5452 88.5745 63.2627 88.8798C63.9954 89.1699 64.5984 89.5591 65.0716 90.0476C65.5601 90.5208 65.9188 91.0475 66.1478 91.6276C66.3921 92.2076 66.5142 92.7877 66.5142 93.3678C66.5142 94.2226 66.3081 95.0241 65.8959 95.7721C65.4838 96.5201 64.9419 97.1994 64.2702 97.81L60.1028 101.748H66.8119V104.748H53.9204Z" fill="#101929"/>
<path d="M53.5979 94.2148L46.7286 109.785H43.6832L46.3393 103.695L41.9658 94.2148H45.2631L48.652 102.595L47.1865 102.55L50.5067 94.2148H53.5979Z" fill="#101929"/>
<path d="M33.8463 101.474C33.8463 101.779 33.9227 102.046 34.0753 102.275C34.228 102.489 34.4341 102.657 34.6936 102.779C34.9683 102.886 35.266 102.939 35.5866 102.939C36.0445 102.939 36.4567 102.848 36.8231 102.664C37.1894 102.466 37.4871 102.191 37.7161 101.84C37.945 101.474 38.0595 101.039 38.0595 100.535L38.4259 101.909C38.4259 102.581 38.2351 103.145 37.8535 103.603C37.4871 104.061 37.0062 104.405 36.4109 104.634C35.8308 104.863 35.2202 104.977 34.5791 104.977C33.9227 104.977 33.3121 104.847 32.7472 104.588C32.1824 104.328 31.7245 103.954 31.3734 103.466C31.0375 102.962 30.8696 102.352 30.8696 101.634C30.8696 100.611 31.2284 99.8023 31.9458 99.2069C32.6633 98.6116 33.6784 98.3139 34.9912 98.3139C35.6629 98.3139 36.2506 98.3826 36.7544 98.52C37.2734 98.6574 37.7084 98.8253 38.0595 99.0237C38.4106 99.2222 38.6625 99.413 38.8152 99.5962V100.97C38.403 100.665 37.9374 100.436 37.4184 100.283C36.9146 100.13 36.3804 100.054 35.8155 100.054C35.3576 100.054 34.9836 100.115 34.6936 100.237C34.4035 100.344 34.1898 100.504 34.0524 100.718C33.915 100.917 33.8463 101.168 33.8463 101.474ZM32.7015 97.1919L31.6024 95.1769C32.1519 94.8869 32.8236 94.6121 33.6174 94.3526C34.4112 94.0778 35.2965 93.9404 36.2735 93.9404C37.1742 93.9404 37.9756 94.0702 38.6778 94.3297C39.38 94.5892 39.9295 94.9708 40.3264 95.4746C40.7233 95.9631 40.9218 96.566 40.9218 97.2835V104.748H38.0595V97.9017C38.0595 97.6117 38.0137 97.3675 37.9221 97.169C37.8306 96.9553 37.6855 96.7798 37.4871 96.6424C37.3039 96.505 37.0826 96.4058 36.8231 96.3447C36.5635 96.2836 36.2735 96.2531 35.9529 96.2531C35.4645 96.2531 34.9989 96.3065 34.5562 96.4134C34.1135 96.5202 33.7319 96.65 33.4113 96.8027C33.0907 96.9553 32.8541 97.0851 32.7015 97.1919Z" fill="#101929"/>
<path d="M19 88.7197H22.2744V104.748H19V88.7197ZM20.9921 91.4904V88.7197H24.1749C25.4419 88.7197 26.5181 88.9258 27.4035 89.338C28.3041 89.7501 28.9911 90.3378 29.4643 91.1011C29.9375 91.8644 30.1741 92.7726 30.1741 93.8259C30.1741 94.864 29.9375 95.7722 29.4643 96.5508C28.9911 97.314 28.3041 97.9017 27.4035 98.3139C26.5181 98.7261 25.4419 98.9321 24.1749 98.9321H20.9921V96.1615H24.1749C25.045 96.1615 25.7319 95.9631 26.2357 95.5662C26.7395 95.1693 26.9913 94.5892 26.9913 93.8259C26.9913 93.0474 26.7395 92.4673 26.2357 92.0857C25.7319 91.6888 25.045 91.4904 24.1749 91.4904H20.9921Z" fill="#101929"/>
<circle cx="74.9418" cy="53.7985" r="4.86052" fill="url(#paint0_linear_1730_1579)"/>
<path d="M88.544 44.5139C89.5394 42.021 92.3674 40.807 94.8604 41.8025V41.8025C97.3534 42.798 98.5673 45.6259 97.5718 48.1189L89.946 67.2164V67.2164C84.96 65.2254 82.5321 59.5695 84.523 54.5835L88.544 44.5139Z" fill="url(#paint1_linear_1730_1579)"/>
<path d="M61.6242 66.2505C60.6386 68.7474 57.8155 69.9725 55.3186 68.9868V68.9868C52.8217 68.0012 51.5966 65.1781 52.5822 62.6812L60.1326 43.5538V43.5538C65.1264 45.525 67.5766 51.1713 65.6054 56.1651L61.6242 66.2505Z" fill="url(#paint2_linear_1730_1579)"/>
<path d="M126.985 104.942C126.039 104.942 125.199 104.705 124.467 104.232C123.734 103.759 123.154 103.11 122.726 102.286C122.314 101.446 122.108 100.492 122.108 99.4237C122.108 98.3552 122.322 97.4087 122.749 96.5844C123.177 95.7601 123.772 95.119 124.535 94.661C125.299 94.1878 126.176 93.9512 127.169 93.9512C128.13 93.9512 128.97 94.1725 129.687 94.6152C130.42 95.0579 130.985 95.6761 131.382 96.4699C131.794 97.2485 132 98.1491 132 99.1719C132 99.2635 131.992 99.3627 131.977 99.4695C131.977 99.5764 131.969 99.668 131.954 99.7443H122.864V98.7139H131.061L130.557 99.4237C130.588 99.3474 130.618 99.2482 130.649 99.1261C130.695 98.9887 130.718 98.8589 130.718 98.7368C130.718 98.0193 130.557 97.3782 130.237 96.8134C129.932 96.2486 129.512 95.8059 128.977 95.4853C128.443 95.1648 127.84 95.0045 127.169 95.0045C126.39 95.0045 125.711 95.1877 125.131 95.554C124.566 95.9051 124.123 96.4089 123.803 97.0653C123.482 97.7064 123.322 98.4697 123.322 99.355C123.322 100.256 123.474 101.042 123.78 101.714C124.1 102.385 124.543 102.904 125.108 103.271C125.688 103.637 126.36 103.82 127.123 103.82C127.932 103.82 128.634 103.645 129.229 103.293C129.84 102.942 130.382 102.393 130.855 101.645L131.817 102.263C131.221 103.179 130.527 103.858 129.733 104.301C128.955 104.728 128.039 104.942 126.985 104.942Z" fill="#101929"/>
<path d="M113.766 101.714C113.918 102.095 114.124 102.446 114.384 102.767C114.643 103.087 114.972 103.347 115.369 103.545C115.781 103.744 116.262 103.843 116.811 103.843C117.452 103.843 117.964 103.683 118.345 103.362C118.742 103.026 118.941 102.568 118.941 101.988C118.941 101.561 118.818 101.21 118.574 100.935C118.33 100.645 118.009 100.408 117.612 100.225C117.216 100.027 116.788 99.8512 116.33 99.6986C115.842 99.5154 115.369 99.3093 114.911 99.0803C114.453 98.8513 114.071 98.546 113.766 98.1644C113.476 97.7675 113.331 97.2561 113.331 96.6303C113.331 96.0349 113.476 95.5388 113.766 95.1419C114.071 94.745 114.46 94.455 114.933 94.2718C115.422 94.0733 115.941 93.9741 116.49 93.9741C117.086 93.9741 117.62 94.0733 118.093 94.2718C118.567 94.4702 118.971 94.7297 119.307 95.0503C119.643 95.3709 119.902 95.7296 120.085 96.1265L119.101 96.7219C118.857 96.2639 118.513 95.867 118.07 95.5312C117.628 95.1953 117.055 95.0274 116.353 95.0274C115.834 95.0274 115.391 95.1572 115.025 95.4167C114.674 95.6762 114.498 96.0578 114.498 96.5616C114.498 96.9737 114.613 97.3172 114.842 97.592C115.071 97.8515 115.376 98.0652 115.758 98.2331C116.139 98.401 116.544 98.5613 116.971 98.714C117.536 98.9277 118.055 99.1643 118.528 99.4238C119.017 99.6833 119.406 100.004 119.696 100.386C120.001 100.767 120.154 101.256 120.154 101.851C120.154 102.767 119.834 103.515 119.192 104.095C118.567 104.66 117.75 104.942 116.742 104.942C116.01 104.942 115.369 104.812 114.819 104.553C114.285 104.293 113.85 103.958 113.514 103.545C113.193 103.133 112.957 102.706 112.804 102.263L113.766 101.714Z" fill="#101929"/>
<path d="M103.419 100.866C103.419 101.782 103.617 102.507 104.014 103.042C104.411 103.561 105.037 103.82 105.892 103.82C106.487 103.82 107.014 103.675 107.472 103.385C107.945 103.095 108.311 102.706 108.571 102.217C108.845 101.729 108.983 101.187 108.983 100.592V94.1802H110.174V104.713H108.983V102.515C108.693 103.278 108.258 103.874 107.678 104.301C107.098 104.728 106.411 104.942 105.617 104.942C104.518 104.942 103.678 104.591 103.098 103.889C102.518 103.171 102.228 102.21 102.228 101.004V94.1802H103.419V100.866Z" fill="#101929"/>
<path d="M88.7229 99.4466C88.7229 98.3781 88.9595 97.4316 89.4327 96.6073C89.906 95.783 90.5471 95.1342 91.3561 94.661C92.1805 94.1878 93.104 93.9512 94.1268 93.9512C95.1495 93.9512 96.0655 94.1878 96.8745 94.661C97.6988 95.1342 98.3476 95.783 98.8208 96.6073C99.294 97.4316 99.5307 98.3781 99.5307 99.4466C99.5307 100.5 99.294 101.446 98.8208 102.286C98.3476 103.11 97.6988 103.759 96.8745 104.232C96.0655 104.705 95.1495 104.942 94.1268 104.942C93.104 104.942 92.1805 104.705 91.3561 104.232C90.5471 103.759 89.906 103.11 89.4327 102.286C88.9595 101.446 88.7229 100.5 88.7229 99.4466ZM89.9365 99.4466C89.9365 100.301 90.1197 101.057 90.486 101.714C90.8524 102.37 91.3485 102.889 91.9744 103.271C92.6155 103.637 93.333 103.82 94.1268 103.82C94.9206 103.82 95.6304 103.637 96.2563 103.271C96.8974 102.889 97.4012 102.37 97.7675 101.714C98.1339 101.057 98.3171 100.301 98.3171 99.4466C98.3171 98.6071 98.1339 97.8591 97.7675 97.2027C97.4012 96.531 96.8974 96.012 96.2563 95.6456C95.6304 95.264 94.9206 95.0732 94.1268 95.0732C93.333 95.0732 92.6155 95.264 91.9744 95.6456C91.3485 96.012 90.8524 96.5234 90.486 97.1798C90.1197 97.8362 89.9365 98.5918 89.9365 99.4466Z" fill="#101929"/>
<path d="M79.2686 86.853V104.713H78.0779V86.853H79.2686ZM84.8327 97.9356C84.8327 97.0349 84.6343 96.3327 84.2374 95.829C83.8558 95.3252 83.2299 95.0733 82.3598 95.0733C81.7644 95.0733 81.2301 95.2184 80.7569 95.5084C80.299 95.7984 79.9326 96.1877 79.6578 96.6762C79.3983 97.1647 79.2686 97.7066 79.2686 98.3019H78.8564C78.8564 97.4623 79.0167 96.722 79.3373 96.0808C79.6731 95.4244 80.1234 94.9054 80.6882 94.5238C81.253 94.1422 81.9018 93.9513 82.6345 93.9513C83.3673 93.9513 83.9855 94.104 84.4893 94.4093C84.993 94.6993 85.3746 95.1344 85.6341 95.7145C85.8937 96.2793 86.0234 96.9738 86.0234 97.7982V104.713H84.8327V97.9356Z" fill="#101929"/>
<defs>
<linearGradient id="paint0_linear_1730_1579" x1="71.9647" y1="50.3354" x2="78.4657" y2="57.6262" gradientUnits="userSpaceOnUse">
<stop stop-color="#00D464"/>
<stop offset="1" stop-color="#16A083"/>
</linearGradient>
<linearGradient id="paint1_linear_1730_1579" x1="116.311" y1="37.4852" x2="87.8626" y2="66.3844" gradientUnits="userSpaceOnUse">
<stop stop-color="#19253D"/>
<stop offset="1" stop-color="#19253D" stop-opacity="0"/>
</linearGradient>
<linearGradient id="paint2_linear_1730_1579" x1="33.8848" y1="73.3888" x2="62.2192" y2="44.3774" gradientUnits="userSpaceOnUse">
<stop stop-color="#19253D"/>
<stop offset="1" stop-color="#19253D" stop-opacity="0"/>
</linearGradient>
</defs>
</svg>
